<?xml version="1.0" encoding="utf-8"?>
<!-- Generator: Adobe Illustrator 15.1.0, SVG Export Plug-In . SVG Version: 6.00 Build 0)  -->
<!DOCTYPE svg PUBLIC "-//W3C//DTD SVG 1.1//EN" "http://www.w3.org/Graphics/SVG/1.1/DTD/svg11.dtd">
<svg version="1.1" id="Layer_1" xmlns="http://www.w3.org/2000/svg" xmlns:xlink="http://www.w3.org/1999/xlink" x="0px" y="0px"
	 width="256px" height="129px" viewBox="0 0 256 129" enable-background="new 0 0 256 129" xml:space="preserve">
<g>
	<path d="M44.987,46.029c1.188,0,2.16,0.937,2.16,2.082c0,1.145-0.972,2.082-2.16,2.082H37.4c-1.188,0-2.159,0.972-2.159,2.16V93.56
		c0,1.188-0.973,2.16-2.16,2.16h-4.565c-1.188,0-2.16-0.972-2.16-2.16V52.354c0-1.188-0.972-2.16-2.159-2.16h-4.98
		c-1.188,0-2.16-0.938-2.16-2.082c0-1.146,0.972-2.082,2.16-2.082h4.98c1.188,0,2.159-0.973,2.159-2.16v-1.495
		c0-1.188,0.08-3.129,0.179-4.313c0,0,0.254-3.078,1.125-5.479c0.867-2.4,2.053-4.482,3.555-6.244
		c1.5-1.762,3.258-3.161,5.271-4.195c2.014-1.035,4.166-1.554,6.457-1.554c1.975,0,3.73,0.222,5.271,0.661
		c1.541,0.441,2.834,1.047,3.881,1.816c1.046,0.771,1.846,1.664,2.398,2.677c0.553,1.014,0.83,2.114,0.83,3.304
		c0,1.454-0.455,2.6-1.363,3.436c-0.908,0.838-1.976,1.256-3.198,1.256c-1.106,0-1.937-0.231-2.488-0.694
		c-0.554-0.462-0.978-1.046-1.272-1.751c-0.297-0.704-0.543-1.464-0.74-2.279c-0.198-0.814-0.455-1.574-0.771-2.281
		c-0.316-0.703-0.789-1.287-1.422-1.75c-0.632-0.463-1.521-0.694-2.665-0.694c-0.909,0-1.737,0.287-2.487,0.858
		c-0.752,0.573-1.394,1.321-1.926,2.248c-0.533,0.924-0.959,1.981-1.273,3.17c-0.316,1.189-0.475,2.424-0.475,3.701v9.603
		c0,1.188,0.973,2.159,2.16,2.159L44.987,46.029L44.987,46.029z"/>
</g>
<g>
	<path d="M122.775,48.189c0-1.188,0.972-2.16,2.16-2.16h4.506c1.188,0,2.16,0.972,2.16,2.16v5.062c0,1.188,0.542,1.353,1.204,0.367
		c0,0,0.593-0.884,1.58-2.14c0.986-1.254,2.015-2.367,3.08-3.336c1.066-0.969,2.183-1.729,3.348-2.279
		c1.164-0.551,2.34-0.826,3.523-0.826c0.949,0,1.847,0.165,2.695,0.496c0.85,0.331,1.58,0.76,2.191,1.289
		c0.609,0.529,1.096,1.156,1.451,1.883c0.354,0.727,0.533,1.486,0.533,2.279c0,1.586-0.444,2.799-1.334,3.635
		c-0.89,0.837-2.144,1.255-3.762,1.255c-0.988,0-1.787-0.121-2.4-0.364c-0.61-0.24-1.153-0.506-1.629-0.792
		c-0.474-0.286-0.957-0.551-1.449-0.793c-0.494-0.241-1.116-0.364-1.866-0.364c-1.187,0-2.358,0.728-3.522,2.182
		c-1.166,1.453-2.381,3.304-3.646,5.551v32.266c0,1.188-0.972,2.16-2.16,2.16h-4.506c-1.188,0-2.16-0.972-2.16-2.16L122.775,48.189
		L122.775,48.189z"/>
</g>
<g>
	<path d="M158.052,48.189c0-1.188,0.972-2.16,2.16-2.16h4.563c1.188,0,2.16,0.972,2.16,2.16v4.996c0,1.188,0.651,1.439,1.448,0.559
		c0,0,0.97-1.074,2.372-2.329c1.399-1.255,2.862-2.356,4.384-3.304c1.521-0.947,3.041-1.695,4.562-2.247
		c1.521-0.55,2.952-0.826,4.297-0.826c1.304,0,2.636,0.265,3.999,0.793c1.36,0.528,2.613,1.255,3.762,2.181
		c1.145,0.926,2.122,2.038,2.932,3.338c0.812,1.299,1.354,2.698,1.63,4.195c0.749-1.454,1.769-2.818,3.053-4.097
		c1.28-1.277,2.702-2.39,4.265-3.337c1.56-0.947,3.219-1.695,4.977-2.247c1.759-0.55,3.484-0.826,5.186-0.826
		c1.658,0,3.229,0.408,4.709,1.224c1.479,0.814,2.772,1.938,3.88,3.369c1.104,1.432,1.975,3.096,2.606,4.989
		c0.632,1.896,0.946,3.897,0.946,6.013v32.929c0,1.188-0.972,2.158-2.16,2.158h-4.506c-1.188,0-2.16-0.972-2.16-2.158v-29.38
		c0-1.188-0.079-3.129-0.175-4.313c0,0-0.043-0.522-0.478-1.779c-0.437-1.256-1.019-2.356-1.747-3.304
		c-0.731-0.947-1.58-1.695-2.548-2.247c-0.97-0.55-1.984-0.826-3.053-0.826c-1.185,0-2.407,0.188-3.673,0.562
		c-1.264,0.375-2.468,0.883-3.611,1.521c-1.146,0.64-2.185,1.388-3.11,2.247s-1.669,1.773-2.221,2.742V93.56
		c0,1.188-0.974,2.159-2.16,2.159h-4.507c-1.188,0-2.16-0.972-2.16-2.159V64.18c0-1.188-0.079-3.129-0.175-4.312
		c0,0-0.043-0.523-0.479-1.779c-0.436-1.255-1.018-2.355-1.748-3.304c-0.729-0.947-1.59-1.695-2.576-2.247
		c-0.986-0.551-2.015-0.826-3.081-0.826c-1.146,0-2.318,0.188-3.522,0.562c-1.205,0.375-2.38,0.892-3.525,1.553
		c-1.145,0.661-2.212,1.42-3.196,2.279c-0.988,0.858-1.8,1.75-2.431,2.676v34.775c0,1.188-0.972,2.16-2.16,2.16h-4.563
		c-1.188,0-2.16-0.972-2.16-2.16V48.188h-0.004V48.189z"/>
</g>
<path d="M102.756,81.301C99.413,65.727,86.392,45.75,86.392,45.75s0.646-3.465,0.646-5.666c0-6.604-3.4-12.968-10.127-13.15
	c-0.979-3.156-4.99-0.502-6.302,1.614c-0.069,0.022-0.136,0.05-0.204,0.073c-0.812-5.227-2.164-3.294-3.07,0.553
	c-0.032,0.021-0.063,1.047-0.096,1.07c-3.529-3.033-6.078,1.041-6.078,1.041s2.269-0.833,3.969,0.844
	c-1.896,2.135-3.051,4.911-3.051,7.956c0,0.825,0.086,1.63,0.246,2.409l-0.002-0.002l-4.598,9.762l10.241-1.833l-0.021-0.026
	c0.823,0.502,2.444,1.297,2.444,1.297s-44.999,43.395,21,45.72c7.81,0,12.556-5.132,12.556-5.132s5.057-7.047,9.194-7.943
	c-4.667-3.334-6.063-4.455-10.435-2.877"/>
<g>
	<g>
		<g>
			<path fill="#3C3E3E" d="M141.003,114.226c0-0.066,0.596-0.125,1.322-0.125c0.726,0,1.318,0.028,1.318,0.062
				s-0.119,0.56-0.268,1.166c0,0,0,0-0.529,0.563c-0.531,0.564-1.229,0.996-2.096,1.295c-0.865,0.297-1.905,0.444-3.119,0.444
				c-2.34,0-4.139-0.577-5.397-1.729c-1.261-1.153-1.89-2.762-1.89-4.817c0-2.034,0.629-3.632,1.89-4.792
				c1.259-1.16,3.06-1.739,5.397-1.739c1.214,0,2.254,0.148,3.119,0.446c0.865,0.297,1.562,0.707,2.096,1.23
				c0.531,0.521,0.797,1.102,0.797,1.729l0,0c0,0.068-0.595,0.125-1.318,0.125c-0.729,0-1.322-0.028-1.322-0.062
				c0-0.034-0.102-0.438-0.223-0.896c0,0,0,0-0.539-0.345s-1.363-0.52-2.473-0.52c-1.32,0-2.43,0.382-3.325,1.144
				s-1.344,1.986-1.344,3.677c0,1.701,0.448,2.933,1.344,3.694c0.896,0.761,2.005,1.142,3.325,1.142
				c1.105,0,1.924-0.169,2.448-0.509C140.743,115.073,141.003,114.678,141.003,114.226L141.003,114.226z"/>
		</g>
		<g>
			<path fill="#3C3E3E" d="M153.933,117.634c-2.064,0-3.825-0.547-5.283-1.642c-1.457-1.094-2.186-2.73-2.186-4.907
				c0-2.153,0.729-3.78,2.186-4.881c1.458-1.103,3.219-1.65,5.283-1.65s3.826,0.55,5.284,1.65c1.457,1.101,2.186,2.728,2.186,4.881
				c0,2.177-0.729,3.813-2.186,4.907C157.759,117.087,155.997,117.634,153.933,117.634z M153.933,115.921
				c1.427,0,2.569-0.443,3.428-1.329c0.857-0.887,1.287-2.055,1.287-3.507c0-1.438-0.43-2.603-1.287-3.489
				c-0.856-0.886-2.001-1.329-3.428-1.329s-2.569,0.443-3.427,1.329c-0.858,0.889-1.287,2.05-1.287,3.489
				c0,1.452,0.429,2.62,1.287,3.507C151.363,115.478,152.506,115.921,153.933,115.921z"/>
		</g>
		<g>
			<path fill="#3C3E3E" d="M167.728,115.135c0,1.188-0.595,2.16-1.32,2.16c-0.727,0-1.319-0.972-1.319-2.16v-8.082
				c0-1.188,0.595-2.16,1.319-2.16c0.728,0,1.32,0.508,1.32,1.124c0,0.618,0.479,0.546,1.062-0.163c0,0,0,0,0.484-0.326
				c0.485-0.326,1.019-0.57,1.594-0.73c0.577-0.161,1.187-0.241,1.822-0.241c0.652,0,1.278,0.08,1.879,0.241
				c0.602,0.16,1.115,0.398,1.548,0.713c0.436,0.316,0.862,0.859,1.287,1.633c0.531-0.725,1.062-1.254,1.596-1.588
				c0.529-0.333,1.068-0.582,1.615-0.75c0.547-0.166,1.132-0.249,1.754-0.249c0.896,0,1.708,0.163,2.438,0.491
				c0.729,0.326,1.29,0.793,1.686,1.4c0.396,0.604,0.594,1.642,0.594,3.104v5.584c0,1.188-0.597,2.16-1.32,2.16
				c-0.727,0-1.321-0.972-1.321-2.16v-2.566c0-1.188-0.047-3.133-0.104-4.317c0,0-0.013-0.229-0.238-0.617
				c-0.226-0.387-0.535-0.681-0.922-0.884c-0.388-0.201-0.862-0.303-1.424-0.303c-0.789,0-1.517,0.188-2.175,0.568
				c-0.66,0.383-1.188,0.896-1.584,1.544c-0.396,0.649-0.593,1.552-0.593,2.704v3.871c0,1.188-0.595,2.16-1.319,2.16
				c-0.728,0-1.32-0.972-1.32-2.16v-2.566c0-1.188-0.04-3.132-0.089-4.318c0,0-0.01-0.229-0.207-0.616
				c-0.197-0.387-0.521-0.681-0.968-0.884c-0.448-0.201-0.925-0.303-1.426-0.303c-0.729,0-1.438,0.193-2.129,0.589
				c-0.689,0.393-1.231,0.916-1.629,1.57c-0.395,0.652-0.592,1.54-0.592,2.657V115.135L167.728,115.135z"/>
		</g>
		<g>
			<path fill="#3C3E3E" d="M192.634,102.145c-0.728,0-1.32-0.466-1.32-1.033c0-0.569,0.595-1.035,1.32-1.035
				c0.727,0,1.321,0.466,1.321,1.035C193.954,101.679,193.36,102.145,192.634,102.145z M191.313,107.053
				c0-1.188,0.595-2.16,1.32-2.16c0.727,0,1.321,0.974,1.321,2.16v8.082c0,1.188-0.597,2.16-1.321,2.16
				c-0.728,0-1.32-0.972-1.32-2.16V107.053z"/>
		</g>
		<g>
			<path fill="#3C3E3E" d="M208.319,114.226c0-0.066,0.597-0.125,1.32-0.125c0.727,0,1.321,0.028,1.321,0.062
				s-0.119,0.56-0.268,1.166c0,0,0,0-0.529,0.563c-0.531,0.564-1.229,0.996-2.097,1.295c-0.866,0.297-1.904,0.444-3.12,0.444
				c-2.338,0-4.138-0.577-5.396-1.729c-1.261-1.153-1.891-2.762-1.891-4.817c0-2.034,0.63-3.632,1.891-4.792
				c1.26-1.16,3.06-1.739,5.396-1.739c1.216,0,2.254,0.148,3.12,0.446c0.865,0.297,1.563,0.707,2.097,1.23
				c0.53,0.521,0.797,1.102,0.797,1.729l0,0c0,0.068-0.597,0.125-1.321,0.125s-1.32-0.028-1.32-0.062
				c0-0.034-0.101-0.438-0.224-0.896c0,0,0,0-0.539-0.345s-1.363-0.52-2.471-0.52c-1.321,0-2.432,0.382-3.325,1.144
				c-0.896,0.762-1.344,1.986-1.344,3.677c0,1.701,0.446,2.933,1.344,3.694c0.896,0.761,2.004,1.142,3.325,1.142
				c1.105,0,1.924-0.169,2.446-0.509C208.058,115.073,208.319,114.678,208.319,114.226L208.319,114.226z"/>
		</g>
		<g>
			<path fill="#3C3E3E" d="M213.574,114.064c0-0.029,0.591-0.055,1.312-0.055c0.72,0,1.309,0.014,1.309,0.026
				s0.118,0.467,0.265,1.005c0,0,0,0,0.521,0.352c0.523,0.354,1.4,0.526,2.63,0.526c1.096,0,1.979-0.208,2.653-0.624
				c0.676-0.417,1.014-0.904,1.014-1.464c0-0.761-0.66-1.303-1.979-1.624l0,0c-0.751-0.177-1.566-0.369-1.812-0.428
				c-0.244-0.062-0.854-0.208-1.354-0.33c-0.5-0.123-1.774-0.669-2.83-1.213c0,0-1.2-0.617-1.2-2.011
				c0-0.976,0.505-1.831,1.515-2.567c1.011-0.738,2.511-1.106,4.497-1.106c1.959,0,3.355,0.315,4.19,0.945
				c0.835,0.631,1.253,1.333,1.253,2.104l0,0c0,0.021-0.6,0.035-1.333,0.035c-0.732,0-1.332-0.008-1.332-0.018
				s-0.119-0.354-0.266-0.762c0,0,0,0-0.531-0.238c-0.531-0.237-1.237-0.356-2.118-0.356c-1.062,0-1.875,0.175-2.437,0.52
				c-0.562,0.345-0.845,0.767-0.845,1.267c0,0.395,0.185,0.709,0.547,0.946c0.364,0.237,0.979,0.452,1.847,0.642l0,0
				c0.688,0.157,1.463,0.334,1.72,0.395c0.257,0.06,1.407,0.327,2.558,0.596c0,0,0,0,0.312,0.119
				c0.311,0.119,0.626,0.268,0.945,0.445c0.455,0.272,0.789,0.598,1.002,0.973c0.212,0.375,0.316,0.818,0.316,1.33
				c0,1.166-0.539,2.146-1.615,2.944c-1.078,0.797-2.644,1.193-4.69,1.193c-1.307,0-2.388-0.149-3.245-0.455
				c-0.858-0.304-1.541-0.723-2.05-1.258C213.829,115.385,213.574,114.768,213.574,114.064L213.574,114.064z"/>
		</g>
	</g>
</g>
<rect x="12.809" y="95.72" width="238.666" height="1.946"/>
</svg>
